<?xml version="1.0" encoding="UTF-8"?><svg id="_イヤー_1" xmlns="http://www.w3.org/2000/svg" viewBox="0 0 326.36 300.71"><defs><style>.cls-1{opacity:.05;}.cls-1,.cls-2{fill:#231815;}.cls-3{fill:#f3ac00;}.cls-4{fill:#fdd034;}.cls-5{fill:#e54f96;}.cls-6,.cls-7,.cls-8{fill:#fff;}.cls-9{fill:#fff231;}.cls-10{fill:#e84592;}.cls-11{fill:#ee87b4;}.cls-12{fill:#efefef;}.cls-13{fill:#6bb92d;}.cls-14,.cls-15{fill:#b47eb5;}.cls-16{fill:#dde4e9;}.cls-17{fill:#cfdc00;}.cls-18,.cls-19{fill:#162a5e;}.cls-15{stroke-width:.25px;}.cls-15,.cls-20,.cls-21,.cls-22,.cls-23,.cls-24,.cls-25,.cls-26,.cls-27,.cls-28,.cls-29,.cls-30,.cls-31,.cls-32,.cls-7,.cls-33,.cls-34,.cls-35,.cls-36,.cls-37,.cls-19,.cls-38,.cls-39,.cls-2,.cls-40,.cls-41,.cls-42,.cls-8{stroke:#231815;stroke-miterlimit:10;}.cls-20{fill:#0094d9;}.cls-21{fill:#006ab8;}.cls-22{fill:#0086c9;}.cls-23{fill:#0095de;}.cls-24{fill:#008bd5;}.cls-25{fill:#007bc7;}.cls-26{fill:#0062b1;}.cls-27{fill:#006bae;}.cls-28{fill:#005082;}.cls-29{fill:#003b68;}.cls-30{fill:#00416c;}.cls-31{fill:#00b4ed;}.cls-32{fill:#e94a1c;}.cls-33{fill:#b5e1f8;}.cls-34{fill:#49315d;}.cls-35{fill:#3a5ba9;}.cls-36{fill:#2d5363;}.cls-37{fill:#2e4a8c;}.cls-38{fill:#0e86ca;}.cls-39{fill:#3ebff0;}.cls-40{fill:#4d5683;}.cls-41{fill:#4ca6dd;}.cls-42{fill:#6fc9f3;}.cls-8{isolation:isolate;opacity:.4;}</style></defs><g id="_イヤー_1-2"><g><g><path class="cls-32" d="M119.5,291.52l-8.34,7.96c-6.46-3.45-7.9-13.34-7.9-13.34l14.22-6.5"/><path class="cls-2" d="M111.16,300.03c-.09,0-.18-.02-.26-.07-6.63-3.54-8.13-13.34-8.19-13.75-.04-.24,.09-.48,.32-.58l14.22-6.5c.28-.12,.61,0,.73,.27,.13,.28,0,.61-.27,.73l-13.83,6.32c.35,1.83,2.06,9.31,7.2,12.34l8.04-7.68c.22-.21,.57-.2,.78,.02s.2,.57-.02,.78l-8.34,7.96c-.1,.1-.24,.15-.38,.15h0Z"/></g><g><path class="cls-32" d="M125.2,292.63s5.09,1.76,11.06,7.02c0,0,8.08-5.09,5.27-16.15l-16.5-1.93"/><path class="cls-2" d="M136.26,300.21c-.13,0-.26-.05-.37-.14-5.81-5.12-10.83-6.9-10.88-6.91-.29-.1-.44-.42-.34-.7,.1-.29,.41-.44,.7-.34,.21,.07,5.08,1.79,10.92,6.84,1.46-1.08,6.93-5.82,4.78-14.95l-16.12-1.89c-.3-.04-.52-.31-.48-.61,.04-.3,.31-.52,.61-.48l16.5,1.93c.23,.03,.42,.19,.47,.41,2.87,11.32-5.42,16.7-5.51,16.75-.09,.06-.19,.08-.29,.08h0Z"/></g><g><path class="cls-32" d="M118.35,287.54s-1.01,6.35,2.65,6.78,4.74-2.15,4.31-6.68"/><path class="cls-2" d="M121.75,294.92c-.26,0-.53-.02-.81-.05-.91-.11-1.64-.53-2.19-1.25-1.57-2.08-.97-6-.94-6.17,.05-.3,.33-.5,.63-.46,.3,.05,.51,.33,.46,.63,0,.04-.56,3.63,.73,5.33,.36,.48,.83,.75,1.44,.82,1.23,.15,2.12-.07,2.73-.66,.9-.88,1.23-2.7,.97-5.41-.03-.3,.19-.57,.5-.6,.3-.04,.57,.19,.6,.5,.3,3.1-.13,5.17-1.3,6.31-.69,.68-1.64,1.02-2.81,1.02h-.01Z"/></g><path class="cls-7" d="M35.99,169.39c7.05-13.09,18.46-20.47,38.6-12.42,20.14,8.06,66.12,28.87,95.66,22.82,29.54-6.04,44.64-57.73,40.95-94.32,0,0,27.86,30.21,32.22,79.21,4.36,49.01-29.87,113.12-106.07,121.17-76.19,8.06-101.7-14.43-112.44-21.82-10.74-7.38-13.76-25.51-9.4-39.27s13.14-41.76,20.47-55.38h0Z"/><g><path class="cls-7" d="M22.57,262.7s-15.44,9.73-18.8,12.08c-3.36,2.35-5.03,5.71,3.69,7.05,8.73,1.34,17.79,2.01,21.15,2.01s7.38-2.01,10.07-4.36,3.86-4.3,3.86-4.3"/><path class="cls-2" d="M28.61,284.4c-3.26,0-12.27-.64-21.23-2.02-4.19-.64-6.42-1.79-6.82-3.5-.42-1.79,1.34-3.46,2.89-4.54,3.33-2.33,18.66-12,18.82-12.1,.26-.16,.6-.09,.76,.17s.09,.6-.17,.76c-.15,.1-15.47,9.75-18.77,12.07-1.77,1.24-2.66,2.47-2.45,3.39,.16,.68,1.14,1.93,5.91,2.66,8.9,1.37,17.83,2.01,21.06,2.01s7.3-2.12,9.71-4.23c2.58-2.26,3.74-4.15,3.75-4.17,.16-.26,.5-.34,.76-.19,.26,.16,.34,.5,.19,.76-.05,.08-1.25,2.05-3.97,4.42-2.37,2.08-6.53,4.5-10.43,4.5h0Z"/></g><path class="cls-12" d="M31.41,268.3l-12.2,11.14s7.43,2.39,12.46,.27c5.04-2.12,6.89-5.83,6.89-5.83l-7.16-5.57h.01Z"/><g><polyline class="cls-38" points="84.3 160.59 92.79 146 67.33 131.95 54.6 154.22"/><path class="cls-2" d="M84.3,161.14c-.09,0-.19-.02-.28-.08-.26-.15-.35-.49-.2-.76l8.2-14.1-24.49-13.52-12.46,21.8c-.15,.26-.49,.36-.75,.21s-.36-.49-.21-.75l12.73-22.28c.15-.26,.48-.36,.75-.21l25.46,14.05c.13,.07,.23,.19,.27,.34,.04,.14,.02,.3-.06,.43l-8.49,14.59c-.1,.18-.29,.27-.48,.27h0Z"/></g><g><path class="cls-26" d="M108.76,170.9s1.93-15.91-6.15-19.56-15.74,3.67-15.74,3.67l-8.2,7.22"/><path class="cls-2" d="M108.76,171.45h-.07c-.3-.04-.52-.31-.48-.62,.02-.16,1.78-15.55-5.83-18.99-7.64-3.45-15.06,3.49-15.13,3.56l-8.22,7.23c-.23,.2-.58,.18-.78-.05s-.18-.58,.05-.78l8.2-7.22c.06-.06,8.01-7.51,16.33-3.75,8.35,3.77,6.55,19.47,6.47,20.13-.03,.28-.27,.49-.55,.49h.01Z"/></g><path class="cls-39" d="M167.91,214.91c-4.04-16.98-17.72-28.82-30.35-36.41-5.89-1.19-11.85-2.77-17.69-4.54,7.31,4.84,23.32,19.33,22.52,52.98-.31,12.92-2.66,23.55-5.81,32.15,10.01,1.06,21.81,3.25,27.81,1.63,5.15-12.95,6.69-32.49,3.52-45.8h0Z"/><path class="cls-35" d="M119.87,173.96c-10.97-3.33-21.52-7.36-30.41-10.93,4.56,6.63,10.88,18.39,12.54,34.38,9.74,8.61,10.98,23.89,11.27,31.12,.35,8.84,3.18,24.75,17.33,29.35,1.86,.6,3.88,.99,5.99,1.21,3.15-8.59,5.5-19.23,5.81-32.15,.81-33.65-15.21-48.13-22.52-52.98h-.01Z"/><path class="cls-19" d="M74.6,156.97c-20.14-8.06-31.55-.67-38.6,12.42-7.34,13.62-16.11,41.62-20.47,55.38-.91,2.88-1.5,5.96-1.76,9.09,15.19-9.83,18.16-32.85,25.96-40.35,14.33-13.78,37.48-6.72,54.45-.71,3.08,1.09,5.66,2.68,7.82,4.59-1.66-15.99-7.97-27.75-12.54-34.38-5.76-2.31-10.83-4.44-14.86-6.05h0Z"/><path class="cls-2" d="M210.87,109.86c-.19,0-.37-.1-.48-.27h0c-.04-.06-3.94-6.12-24.71-6.44-.12,0-.23-.04-.32-.11-.19-.14-19.55-14.13-45.79-3.96-.22,.08-.46,.02-.62-.15s-.18-.43-.07-.63c.22-.4,22.05-39.23,67.9-29.92,1.32-4.22,12.01-32.74,58.18-27.43,.2,.02,.37,.15,.45,.34,.08,.19,.04,.4-.09,.56-.17,.2-16.8,20.37-24.73,47.13-.04,.15-.15,.27-.29,.34-.13,.06-12.82,6.38-13.79,17.68-.03,.3-.28,.53-.6,.5-.3-.03-.53-.29-.5-.6,.96-11.22,12.39-17.54,14.19-18.46,7.13-23.88,21.1-42.51,24.24-46.5-13.95-1.47-32.89-.54-46.01,11.54-8.03,7.39-10.1,15.59-10.12,15.67-.07,.29-.36,.47-.65,.41-40.48-8.51-62.06,21.16-66.39,27.92,24.85-8.87,43.36,3.27,45.2,4.55,21.4,.37,25.32,6.71,25.47,6.99,.15,.26,.06,.6-.2,.76-.09,.05-.18,.07-.28,.07h0Z"/><g><polygon class="cls-27" points="81.91 139.64 110.55 128.23 96.76 148.39 81.91 139.64"/><path class="cls-2" d="M96.76,148.94c-.1,0-.19-.02-.28-.08l-14.85-8.75c-.18-.11-.29-.31-.27-.52,.02-.21,.15-.39,.35-.47l28.64-11.4c.22-.09,.48-.02,.64,.17,.15,.19,.16,.46,.02,.66l-13.79,20.15c-.11,.16-.28,.24-.46,.24h0Zm-13.6-9.21l13.43,7.92,12.47-18.23-25.91,10.32h0Z"/></g><g><polygon class="cls-31" points="60.7 88.72 72.37 66.98 98.62 64.85 115.33 85.01 113.47 111.26 88.28 124.52 66.53 113.38 60.7 88.72"/><path class="cls-2" d="M88.28,125.07c-.09,0-.17-.02-.25-.06l-21.75-11.14c-.14-.07-.25-.21-.29-.36l-5.83-24.66c-.03-.13,0-.27,.05-.39l11.67-21.75c.09-.17,.26-.27,.44-.29l26.25-2.12c.18-.02,.35,.06,.47,.2l16.71,20.15c.09,.11,.14,.25,.13,.39l-1.86,26.25c-.01,.19-.12,.36-.29,.45l-25.19,13.26c-.08,.04-.17,.06-.26,.06h0Zm-21.27-12.06l21.26,10.89,24.67-12.98,1.82-25.73-16.38-19.76-25.67,2.07-11.43,21.3,5.73,24.21Z"/></g><g><polygon class="cls-20" points="106.31 55.31 131.5 87.93 150.86 72.81 125.94 39.13 106.31 55.31"/><path class="cls-2" d="M131.5,88.48h-.07c-.15-.02-.28-.09-.37-.21l-25.19-32.62c-.18-.24-.14-.57,.09-.76l19.62-16.18c.12-.1,.27-.14,.42-.12s.29,.1,.38,.22l24.93,33.68c.18,.24,.13,.58-.1,.76l-19.36,15.12c-.1,.08-.22,.12-.34,.12h0Zm-24.43-33.09l24.53,31.75,18.5-14.44-24.26-32.78-18.76,15.47h-.01Z"/></g><g><polygon class="cls-31" points="265.3 79.66 295.27 58.09 315.02 87.59 283.99 108.9 265.3 79.66"/><path class="cls-2" d="M283.99,109.46s-.07,0-.11-.01c-.15-.03-.28-.12-.36-.24l-18.69-29.24c-.16-.25-.1-.58,.14-.75l29.97-21.57c.12-.09,.27-.12,.42-.1,.15,.03,.28,.11,.36,.24l19.75,29.5c.17,.25,.1,.59-.15,.76l-31.03,21.32c-.09,.06-.2,.1-.31,.1h0Zm-17.94-29.66l18.1,28.32,30.11-20.68-19.13-28.57-29.08,20.93h0Z"/></g><g><polygon class="cls-22" points="272.66 128.87 315.56 120.78 316.37 148.3 273.2 140.74 272.66 128.87"/><path class="cls-2" d="M316.37,148.85h-.1l-43.17-7.56c-.26-.04-.45-.26-.46-.52l-.54-11.87c-.01-.27,.18-.52,.45-.57l42.9-8.09c.16-.03,.32,.01,.45,.11s.2,.25,.21,.41l.81,27.52c0,.17-.06,.33-.19,.43-.1,.09-.23,.13-.36,.13h0Zm-42.64-8.57l42.07,7.36-.77-26.2-41.79,7.89,.5,10.95h-.01Z"/></g><g><polygon class="cls-42" points="260.52 53.86 282.37 67.35 250.53 90.29 260.52 53.86"/><path class="cls-2" d="M250.53,90.84c-.11,0-.22-.03-.32-.1-.19-.13-.28-.37-.22-.6l9.98-36.43c.05-.17,.17-.3,.33-.37,.16-.06,.34-.05,.49,.04l21.86,13.49c.16,.1,.26,.27,.26,.45s-.08,.36-.23,.47l-31.84,22.94c-.1,.07-.21,.1-.32,.1h.01Zm10.32-36.11l-9.37,34.21,29.9-21.54-20.52-12.67h-.01Z"/></g><g><polygon class="cls-21" points="275.63 158.28 309.9 167.73 316.37 183.65 281.57 174.86 275.63 158.28"/><path class="cls-2" d="M316.37,184.2s-.09,0-.14-.02l-34.81-8.78c-.18-.04-.32-.18-.39-.35l-5.94-16.58c-.07-.19-.02-.41,.12-.56,.14-.15,.35-.21,.55-.16l34.27,9.44c.17,.05,.3,.17,.36,.32l6.48,15.92c.08,.19,.04,.41-.09,.57-.11,.12-.26,.19-.42,.19h.01Zm-34.38-9.79l33.46,8.44-5.96-14.66-32.98-9.09,5.48,15.3h0Z"/></g><g><polygon class="cls-19" points="282.1 182.03 309.09 207.93 272.66 219.53 282.1 182.03"/><path class="cls-2" d="M272.66,220.08c-.14,0-.27-.05-.38-.15-.15-.14-.21-.34-.16-.54l9.44-37.51c.05-.19,.19-.34,.38-.4,.19-.05,.39,0,.54,.13l26.98,25.9c.14,.13,.2,.33,.16,.52s-.18,.34-.37,.4l-36.43,11.6s-.11,.03-.17,.03v.02Zm9.76-37l-8.97,35.62,34.6-11.02-25.63-24.6h0Z"/></g><g><polygon class="cls-30" points="259.98 193.09 278.14 197.41 269.46 232.23 255.66 228.98 259.98 193.09"/><path class="cls-2" d="M269.46,232.78s-.08,0-.13,0l-13.79-3.26c-.27-.06-.46-.32-.42-.6l4.32-35.89c.02-.16,.1-.3,.23-.39s.29-.12,.44-.08l18.16,4.32c.14,.03,.27,.12,.34,.25,.08,.13,.1,.28,.06,.42l-8.68,34.83c-.06,.25-.29,.42-.54,.42h0Zm-13.19-4.24l12.78,3.02,8.42-33.75-17.02-4.04-4.18,34.78h0Z"/></g><g><polygon class="cls-28" points="260.52 230.32 245.14 241.39 246.22 250.02 265.37 256.23 282.37 248.4 282.8 235.15 260.52 230.32"/><path class="cls-2" d="M265.37,256.78c-.06,0-.11,0-.17-.03l-19.16-6.21c-.2-.07-.35-.24-.38-.46l-1.08-8.63c-.02-.2,.06-.4,.23-.52l15.38-11.06c.13-.09,.29-.12,.44-.09l22.29,4.82c.26,.06,.44,.29,.44,.56l-.43,13.25c0,.21-.13,.4-.32,.48l-17,7.83c-.07,.03-.15,.05-.23,.05h0Zm-18.65-7.17l18.62,6.03,16.49-7.59,.4-12.45-21.6-4.67-14.91,10.73,1,7.96h0Z"/></g><g><circle class="cls-19" cx="247.9" cy="223.51" r="8.16"/><path class="cls-2" d="M247.9,232.23c-4.8,0-8.71-3.91-8.71-8.71s3.91-8.71,8.71-8.71,8.71,3.91,8.71,8.71-3.91,8.71-8.71,8.71h0Zm0-16.32c-4.2,0-7.61,3.41-7.61,7.61s3.41,7.61,7.61,7.61,7.61-3.41,7.61-7.61-3.41-7.61-7.61-7.61Z"/></g><g><circle class="cls-37" cx="279.23" cy="225.85" r="7.82"/><path class="cls-2" d="M279.23,234.23c-4.62,0-8.38-3.76-8.38-8.38s3.76-8.38,8.38-8.38,8.38,3.76,8.38,8.38-3.76,8.38-8.38,8.38Zm0-15.65c-4.01,0-7.27,3.26-7.27,7.27s3.26,7.27,7.27,7.27,7.27-3.26,7.27-7.27-3.26-7.27-7.27-7.27Z"/></g><g><path class="cls-34" d="M234.34,252.45c.81,0,9.71,7.29,9.71,7.29l-9.71,12.95-10.52-6.75"/><path class="cls-2" d="M234.34,273.24c-.1,0-.21-.03-.3-.09l-10.52-6.75c-.26-.16-.33-.51-.17-.76,.16-.26,.51-.33,.76-.17l10.09,6.47,9.09-12.12c-4-3.26-8.38-6.64-9.03-6.83-.31,0-.51-.24-.51-.55s.29-.55,.59-.55c.67,0,4.05,2.49,10.06,7.41,.23,.19,.27,.52,.09,.76l-9.71,12.95c-.11,.14-.27,.22-.44,.22h0Z"/></g><g><polygon class="cls-31" points="269.95 87.05 258.9 84.89 254.31 94.6 259.17 103.78 270.43 105.03 274.23 93.45 269.95 87.05"/><path class="cls-2" d="M270.43,105.58h-.06l-11.26-1.25c-.18-.02-.34-.13-.43-.29l-4.86-9.17c-.08-.15-.09-.34,0-.49l4.59-9.71c.11-.23,.36-.35,.61-.31l11.05,2.16c.14,.03,.27,.11,.35,.24l4.28,6.4c.09,.14,.12,.32,.07,.48l-3.8,11.58c-.07,.23-.29,.38-.52,.38v-.02Zm-10.92-2.32l10.52,1.17,3.58-10.9-4-5.98-10.41-2.04-4.29,9.07,4.59,8.67h.01Z"/></g><g><polygon class="cls-31" points="130.19 44.69 132.62 38.48 137.75 38.48 140.72 43.61 139.6 48.72 133.64 49.38 130.19 44.69"/><path class="cls-2" d="M133.64,49.94c-.17,0-.34-.08-.45-.23l-3.44-4.7c-.11-.15-.14-.35-.07-.53l2.43-6.21c.08-.21,.29-.35,.51-.35h5.13c.2,0,.38,.1,.48,.28l2.97,5.13c.07,.12,.09,.26,.06,.39l-1.11,5.11c-.05,.23-.24,.41-.48,.43l-5.97,.66h-.06v.02Zm-2.82-5.33l3.07,4.2,5.25-.58,.98-4.52-2.7-4.67h-4.43l-2.18,5.57h0Z"/></g><g><path class="cls-42" d="M107.58,75.84c.81,0,8.58-7.68,8.58-7.68l-6.48-8.63-9.2,7.49,7.09,8.82h0Z"/><path class="cls-2" d="M107.58,76.39c-.17,0-.33-.08-.43-.21l-7.09-8.82c-.19-.24-.15-.58,.08-.77l9.2-7.49c.12-.1,.27-.14,.42-.12s.28,.1,.37,.22l6.48,8.63c.17,.22,.14,.53-.05,.72-7.93,7.84-8.71,7.84-8.97,7.84h0Zm-6.32-9.29l6.48,8.05c1.09-.74,4.54-3.95,7.69-7.05l-5.84-7.79-8.33,6.78h0Z"/></g><g><polygon class="cls-33" points="115.33 85.01 112.55 81.41 124.39 78.69 129.26 84.79 126.42 92.45 114.94 92.48 115.33 85.01"/><path class="cls-2" d="M114.94,93.03c-.15,0-.3-.06-.4-.17s-.16-.26-.15-.41l.38-7.27-2.65-3.44c-.11-.15-.15-.35-.08-.52,.06-.18,.21-.31,.4-.35l11.83-2.72c.21-.05,.42,.03,.56,.19l4.87,6.1c.12,.15,.15,.36,.09,.54l-2.84,7.66c-.08,.22-.29,.36-.52,.36l-11.48,.03h0Zm-1.42-11.28l2.25,2.92c.08,.1,.12,.23,.11,.37l-.36,6.89,10.51-.03,2.6-7.01-4.46-5.58-10.65,2.45h0Z"/></g><g><polygon class="cls-25" points="85.94 137.51 81.36 127.52 96.47 121.05 99.43 131.84 85.94 137.51"/><path class="cls-2" d="M85.94,138.06c-.21,0-.41-.12-.5-.32l-4.59-9.98c-.06-.14-.07-.29-.01-.43,.05-.14,.16-.25,.3-.31l15.11-6.48c.15-.06,.31-.06,.46,0s.25,.2,.29,.35l2.97,10.79c.07,.27-.06,.55-.32,.66l-13.49,5.67c-.07,.03-.14,.04-.21,.04h-.01Zm-3.85-10.24l4.13,8.98,12.55-5.27-2.67-9.71-14.01,6Z"/></g><g><ellipse class="cls-25" cx="106.19" cy="122.79" rx="8.36" ry="5.53" transform="translate(-33.88 40.72) rotate(-18.78)"/><path class="cls-2" d="M104.15,129.24c-.85,0-1.68-.1-2.45-.3-2.02-.53-3.42-1.69-3.96-3.27-.54-1.58-.13-3.36,1.15-5.01,1.23-1.58,3.12-2.87,5.34-3.62s4.5-.89,6.44-.38c2.02,.53,3.42,1.69,3.96,3.27h0c.54,1.58,.13,3.36-1.15,5.01-1.22,1.58-3.12,2.87-5.34,3.62-1.33,.45-2.7,.68-3.99,.68h0Zm4.06-11.78c-1.17,0-2.41,.21-3.63,.63-2.01,.68-3.73,1.84-4.82,3.25-1.04,1.35-1.39,2.76-.97,3.98,.41,1.22,1.55,2.13,3.2,2.56,1.73,.45,3.79,.33,5.8-.36,2.01-.68,3.73-1.84,4.82-3.25,1.04-1.35,1.39-2.76,.97-3.98h0c-.41-1.22-1.55-2.13-3.19-2.56-.68-.18-1.41-.27-2.17-.27h-.01Z"/></g><path class="cls-15" d="M193.47,208.95c-6.19-17.17-21.11-24.76-33.02-28.11-7.2,.19-14.98-.74-22.89-2.35,12.63,7.59,26.3,19.44,30.35,36.41,6.18,25.95-4.64,56.96-27.88,70.63,11.57-1.44,22.15-4.18,31.74-7.97,16.53-15.33,31.62-41.1,21.7-68.62h0Z"/><path class="cls-13" d="M211.71,187.84c-11.94-9.35-25.39-10.97-33.43-10.95-2.54,1.35-5.22,2.33-8.02,2.91-3.1,.63-6.39,.96-9.8,1.05,11.9,3.35,26.82,10.93,33.02,28.11,9.92,27.52-5.17,53.29-21.7,68.62,20.33-8.04,36.27-20.78,47.92-35.76,6.2-17.04,9.08-40.61-7.98-53.97h0Z"/><path class="cls-5" d="M221.09,126.85c7.71,1.75,14.12,7.16,18.69,15.98-2.18-8.84-5.01-16.79-8.05-23.77-2.83-2.77-6.62-5.29-11.42-6.02-4.44-.68-7.74,.8-9.88,2.36-.64,4.62-1.52,9.23-2.61,13.75,3.24-1.97,7.77-3.54,13.27-2.29h0Z"/><path class="cls-11" d="M220.31,113.04c4.8,.73,8.59,3.26,11.42,6.02-9.31-21.41-20.53-33.58-20.53-33.58,.94,9.33,.66,19.63-.77,29.92,2.13-1.55,5.44-3.03,9.88-2.36Z"/><path class="cls-17" d="M216.4,163.6c-10.81-3.33-19.15-1.36-24.04,.69-4.09,5.44-8.8,9.8-14.08,12.6,8.05-.02,21.49,1.6,33.43,10.95,17.06,13.36,14.18,36.93,7.98,53.97,10.63-13.67,17.7-29.2,21.3-44.73-1.42-15.66-9.47-28.83-24.59-33.48h0Z"/><path class="cls-3" d="M239.78,142.84c-4.56-8.82-10.98-14.23-18.69-15.98-5.5-1.25-10.04,.32-13.27,2.29-1.44,5.91-3.26,11.65-5.45,17.03,3.78-2.09,9.41-3.68,17.42-2.64,12.15,1.58,20.13,11.03,23.79,23.18-.05-.67-.09-1.35-.15-2.01-.69-7.78-1.98-15.07-3.65-21.86h0Z"/><path class="cls-9" d="M219.79,143.53c-8.01-1.05-13.64,.55-17.42,2.64-2.76,6.76-6.1,12.93-10,18.12,4.89-2.05,13.23-4.01,24.04-.69,15.12,4.65,23.17,17.82,24.59,33.48,2.39-10.31,3.24-20.62,2.59-30.37-3.66-12.15-11.64-21.59-23.79-23.18h0Z"/><g><ellipse class="cls-7" cx="133.21" cy="238" rx="12.96" ry="9.04" transform="translate(-129.33 311.93) rotate(-76.49)"/><path class="cls-2" d="M131.7,251.35c-.55,0-1.1-.06-1.64-.19-5.14-1.24-7.91-8.14-6.17-15.38,.83-3.48,2.57-6.52,4.89-8.58,2.37-2.1,5.07-2.93,7.6-2.32,5.14,1.24,7.91,8.14,6.17,15.38h0c-.84,3.48-2.57,6.52-4.89,8.58-1.86,1.65-3.93,2.52-5.95,2.52h-.01Zm3.03-25.58c-1.76,0-3.57,.77-5.22,2.24-2.15,1.91-3.76,4.75-4.54,8.01-1.6,6.65,.8,12.96,5.35,14.05,2.17,.52,4.51-.22,6.6-2.07,2.15-1.91,3.76-4.75,4.54-8.01,1.6-6.65-.8-12.96-5.35-14.05-.45-.11-.92-.16-1.38-.16h0Zm7.27,14.33h0Z"/></g><ellipse class="cls-18" cx="133.21" cy="238" rx="8.95" ry="5.58" transform="translate(-129.33 311.93) rotate(-76.49)"/><circle class="cls-6" cx="133.59" cy="233.36" r="2.05"/><circle class="cls-6" cx="133.06" cy="244" r="3.57"/><path class="cls-2" d="M127.66,214.88c-.17,0-.34-.06-.48-.19-.28-.26-.29-.7-.02-.98,.27-.29,6.8-7,17.13-8.65,.38-.06,.73,.2,.79,.57s-.2,.73-.57,.79c-9.86,1.57-16.29,8.17-16.35,8.24-.14,.14-.32,.21-.5,.21h0Z"/><g><ellipse class="cls-20" cx="306.44" cy="108.42" rx="21.07" ry="12.2" transform="translate(-9.3 185.66) rotate(-33.23)"/><path class="cls-2" d="M297.64,124.38c-4.26,0-7.54-1.44-9.29-4.12-1.9-2.9-1.76-6.86,.4-11.15,2.11-4.19,5.91-8.23,10.7-11.37s10.01-5.01,14.7-5.27c4.8-.27,8.48,1.19,10.38,4.08h0c1.9,2.9,1.76,6.86-.4,11.15-2.11,4.19-5.91,8.23-10.7,11.37-4.79,3.14-10.01,5.01-14.7,5.27-.37,.02-.74,.03-1.1,.03h.01Zm17.61-30.82c-.34,0-.68,0-1.04,.03-4.5,.25-9.52,2.05-14.15,5.09s-8.29,6.92-10.32,10.94c-1.97,3.93-2.14,7.49-.47,10.05,1.67,2.55,5.01,3.83,9.4,3.59,4.5-.25,9.52-2.05,14.15-5.09s8.29-6.92,10.32-10.94c1.97-3.93,2.14-7.49,.47-10.05h0c-1.54-2.35-4.49-3.62-8.36-3.62Z"/></g><g><circle class="cls-31" cx="281.5" cy="121.83" r="5.13"/><path class="cls-2" d="M281.5,127.52c-3.13,0-5.68-2.55-5.68-5.68s2.55-5.68,5.68-5.68,5.68,2.55,5.68,5.68-2.55,5.68-5.68,5.68Zm0-10.26c-2.52,0-4.58,2.05-4.58,4.58s2.05,4.58,4.58,4.58,4.58-2.05,4.58-4.58-2.05-4.58-4.58-4.58Z"/></g><g><polygon class="cls-42" points="286.69 113.25 263.5 125.23 274.32 93.63 286.69 113.25"/><path class="cls-2" d="M263.5,125.78c-.13,0-.26-.05-.36-.13-.17-.15-.24-.38-.16-.6l10.82-31.6c.07-.2,.25-.35,.46-.37,.21-.03,.42,.07,.53,.25l12.38,19.62c.08,.13,.11,.29,.07,.44s-.14,.27-.28,.35l-23.2,11.98c-.08,.04-.17,.06-.25,.06h-.01Zm10.97-30.88l-10,29.21,21.44-11.07-11.44-18.14Z"/></g><g><polygon class="cls-19" points="252.13 236.21 238.58 227.25 236.9 231.27 236.9 246.82 252.13 236.21"/><path class="cls-2" d="M236.9,247.37c-.09,0-.18-.02-.26-.06-.18-.1-.3-.28-.3-.49v-15.55c0-.07,0-.15,.04-.21l1.67-4.01c.06-.15,.19-.27,.35-.32s.33-.02,.47,.07l13.56,8.96c.15,.1,.25,.27,.25,.45s-.09,.36-.24,.46l-15.23,10.61c-.09,.07-.21,.1-.32,.1h.01Zm.55-16.01v14.39l13.69-9.54-12.32-8.14-1.37,3.29h0Z"/></g><g><polygon class="cls-25" points="291.93 162.69 288.92 157.51 302.3 149.48 303.3 159.35 297.74 164.26 291.93 162.69"/><path class="cls-2" d="M297.74,164.81s-.1,0-.14-.02l-5.81-1.56c-.14-.04-.26-.13-.33-.26l-3.01-5.19c-.15-.26-.07-.6,.19-.75l13.38-8.03c.16-.1,.36-.1,.53-.02s.28,.25,.3,.44l1,9.87c.02,.18-.05,.35-.18,.47l-5.56,4.91c-.1,.09-.23,.14-.37,.14Zm-5.45-2.59l5.31,1.42,5.12-4.52-.89-8.72-12.17,7.3,2.62,4.52h.01Z"/></g><g><polygon class="cls-23" points="308.99 153.83 316.68 158.18 315.34 163.2 309.9 167.73 302.96 165.67 303.3 159.35 308.99 153.83"/><path class="cls-2" d="M309.9,168.28s-.11,0-.16-.02l-6.94-2.06c-.25-.07-.41-.3-.39-.56l.34-6.32c0-.14,.07-.27,.17-.37l5.69-5.52c.18-.17,.45-.21,.66-.08l7.69,4.35c.22,.12,.33,.38,.26,.62l-1.34,5.02c-.03,.11-.09,.21-.18,.28l-5.45,4.53c-.1,.08-.23,.13-.35,.13Zm-6.36-3.02l6.24,1.85,5.09-4.23,1.18-4.43-6.96-3.93-5.23,5.08-.31,5.67h0Z"/></g><g><polygon class="cls-24" points="293.61 144.27 295.18 153.74 284.31 160.63 276.21 151.66 283.41 142.6 293.61 144.27"/><path class="cls-2" d="M284.31,161.18c-.15,0-.3-.06-.41-.18l-8.1-8.97c-.18-.2-.19-.5-.02-.71l7.2-9.06c.12-.16,.33-.23,.52-.2l10.2,1.67c.23,.04,.42,.22,.46,.46l1.57,9.47c.04,.22-.06,.44-.25,.56l-10.87,6.89c-.09,.06-.19,.09-.3,.09v-.02Zm-7.38-9.55l7.47,8.28,10.17-6.45-1.44-8.72-9.49-1.56-6.71,8.44h0Z"/></g><g><polygon class="cls-29" points="301.99 179.9 286.6 186.35 272.28 172.56 301.99 179.9"/><path class="cls-2" d="M286.6,186.91c-.14,0-.28-.05-.38-.15l-14.32-13.79c-.18-.17-.22-.45-.1-.67s.38-.33,.62-.27l29.7,7.34c.23,.06,.4,.26,.42,.49,.02,.24-.12,.46-.34,.55l-15.38,6.45c-.07,.03-.14,.04-.21,.04h-.01Zm-12.45-13.3l12.58,12.11,13.51-5.67-26.08-6.44h-.01Z"/></g><g><polygon class="cls-40" points="302.04 179.82 316.01 192.13 302.41 201.41 286.76 186.26 302.04 179.82"/><path class="cls-2" d="M302.41,201.96c-.14,0-.28-.05-.38-.16l-15.64-15.15c-.13-.13-.19-.32-.16-.5s.16-.34,.33-.41l15.28-6.43c.19-.08,.42-.05,.58,.09l13.97,12.31c.13,.11,.2,.28,.19,.45s-.1,.33-.24,.42l-13.61,9.28c-.09,.06-.2,.1-.31,.1h0Zm-14.66-15.52l14.72,14.26,12.65-8.62-13.18-11.61-14.19,5.97Z"/></g><path class="cls-16" d="M210.87,107.94c-.19,0-.38-.1-.48-.28-5.83-10.39-23.55-9.56-23.73-9.55-.11,0-.23-.02-.32-.08-16.02-10.1-41-7.48-41.25-7.45-.3,.03-.58-.19-.61-.49s.19-.58,.49-.61c.25-.03,25.46-2.67,41.82,7.52,.9-.03,5.02-.12,9.81,.88,7.1,1.48,12.21,4.68,14.76,9.24,.15,.27,.05,.6-.21,.75-.09,.05-.18,.07-.27,.07h0Z"/><path class="cls-16" d="M211.04,105.16c-.18,0-.36-.09-.47-.25-7.44-11.55-21.02-11.7-21.16-11.7-.11,0-.23-.04-.32-.1-17.47-12.34-36.27-9.6-36.45-9.57-.31,.05-.58-.16-.63-.46-.05-.3,.16-.58,.46-.63,.19-.03,19.33-2.82,37.12,9.66,1.68,.06,14.61,.88,21.91,12.21,.17,.26,.09,.6-.17,.76-.09,.06-.2,.09-.3,.09h.01Z"/><path class="cls-16" d="M210.78,86.34c-.22,0-.42-.13-.51-.34-6-14.35-19.09-17.88-19.22-17.92-.3-.08-.47-.38-.4-.67,.08-.3,.38-.47,.67-.4,.14,.04,13.75,3.71,19.97,18.56,.12,.28-.02,.61-.3,.72-.07,.03-.14,.04-.21,.04h0Z"/><path class="cls-16" d="M211.2,95.99c-.23,0-.45-.15-.52-.38-7.02-21.01-29.93-25.97-30.16-26.01-.3-.06-.49-.35-.43-.65,.06-.3,.36-.49,.65-.43,.24,.05,23.76,5.14,30.98,26.74,.1,.29-.06,.6-.35,.7-.06,.02-.12,.03-.18,.03h.01Z"/><path class="cls-16" d="M211.69,100.9c-.21,0-.41-.12-.5-.32-9.6-20.81-39.15-28.78-39.44-28.85-.3-.08-.47-.38-.39-.67,.08-.3,.38-.47,.67-.39,.3,.08,30.34,8.18,40.17,29.46,.13,.28,0,.61-.27,.73-.07,.03-.15,.05-.23,.05h0Z"/><path class="cls-16" d="M211.69,103.85c-.2,0-.38-.1-.48-.29-11.5-20.94-48.86-27.18-49.24-27.24-.3-.05-.51-.33-.46-.63,.05-.3,.33-.51,.63-.46,.38,.06,38.27,6.38,50.03,27.8,.15,.27,.05,.6-.22,.75-.08,.05-.18,.07-.27,.07h.01Z"/><path class="cls-16" d="M224.29,103.19c-.3,0-.55-.25-.55-.55-.08-11.54,10.55-17.22,12.46-18.14,4.28-30.87,22.17-43.37,22.35-43.5,.25-.17,.59-.11,.77,.15,.17,.25,.11,.6-.15,.77-.18,.12-17.79,12.46-21.92,43.03-.03,.19-.15,.36-.33,.43-.12,.05-12.16,5.38-12.08,17.25,0,.31-.24,.55-.55,.56h0Z"/><path class="cls-16" d="M221.93,100.81h-.04c-.3-.02-.53-.29-.51-.59,.02-.35,.7-8.65,8.45-18.85,.18-2.37,2.53-28.22,20.88-40.65,.25-.17,.6-.1,.77,.15s.1,.6-.15,.77c-18.69,12.66-20.39,39.7-20.41,39.97,0,.11-.05,.22-.11,.31-7.63,9.98-8.32,18.31-8.33,18.4-.02,.29-.26,.51-.55,.51v-.02Z"/><path class="cls-16" d="M220.43,98.25h-.06c-.3-.03-.52-.31-.49-.61,0-.11,1.25-10.92,4.58-23.17,4.48-16.5,10.42-27.6,17.65-32.99,.24-.18,.59-.13,.77,.11s.13,.59-.11,.77c-16.79,12.52-21.74,54.96-21.79,55.39-.03,.28-.27,.49-.55,.49h0Z"/><path class="cls-16" d="M211.98,85.89c-.27,0-.5-.19-.55-.47-.02-.15-2.39-15.5,1.68-27.99,.09-.29,.41-.45,.7-.35,.29,.09,.45,.41,.35,.7-3.98,12.24-1.66,27.33-1.64,27.48,.05,.3-.16,.58-.46,.63h-.08Z"/><path class="cls-16" d="M215.15,89.81c-.26,0-.49-.18-.54-.45-.04-.21-4.12-21.69,8.37-40.66,.17-.25,.51-.33,.77-.16,.25,.17,.33,.51,.16,.77-12.24,18.57-8.25,39.62-8.21,39.83,.06,.3-.14,.59-.43,.65-.04,0-.07,.01-.11,.01h-.01Z"/><path class="cls-16" d="M217.56,92.97c-.29,0-.54-.23-.55-.53-.02-.31-1.33-30.88,14.92-48.49,.21-.22,.56-.24,.78-.03,.22,.21,.24,.56,.03,.78-15.94,17.27-14.64,47.38-14.63,47.68,.02,.3-.22,.56-.52,.58h-.03Z"/><g><polygon class="cls-42" points="195.22 19.05 213.84 27.96 195.29 42.45 195.22 19.05"/><path class="cls-2" d="M195.29,43c-.08,0-.16-.02-.24-.06-.19-.09-.31-.28-.31-.5l-.08-23.39c0-.19,.1-.37,.26-.47,.16-.1,.36-.11,.53-.03l18.62,8.9c.17,.08,.29,.25,.31,.44s-.06,.38-.21,.5l-18.55,14.49c-.1,.08-.22,.12-.34,.12h.01Zm.48-23.07l.07,21.38,16.95-13.24-17.02-8.14Z"/></g><g><polygon class="cls-31" points="180.38 26.34 195.22 25.26 195.22 61.69 181.46 63.3 180.38 26.34"/><path class="cls-2" d="M181.46,63.86c-.13,0-.26-.05-.36-.13-.12-.1-.19-.25-.19-.4l-1.08-36.97c0-.3,.22-.55,.51-.57l14.84-1.08c.15-.01,.3,.04,.42,.15s.18,.25,.18,.4V61.69c0,.28-.21,.52-.49,.55l-13.76,1.62h-.07Zm-.51-37.01l1.05,35.83,12.67-1.49V25.85l-13.72,1Z"/></g><g><circle class="cls-42" cx="160.27" cy="50.76" r="20.64"/><path class="cls-2" d="M160.27,71.95c-11.69,0-21.19-9.51-21.19-21.19s9.51-21.19,21.19-21.19,21.19,9.51,21.19,21.19-9.51,21.19-21.19,21.19Zm0-41.28c-11.08,0-20.09,9.01-20.09,20.09s9.01,20.09,20.09,20.09,20.09-9.01,20.09-20.09-9.01-20.09-20.09-20.09Z"/></g><g><polygon class="cls-31" points="168.51 19.86 180.31 19.42 180.71 45.41 168.51 19.86"/><path class="cls-2" d="M180.71,45.96c-.21,0-.41-.12-.5-.31l-12.2-25.54c-.08-.17-.07-.37,.03-.52,.1-.16,.27-.26,.45-.27l11.8-.44c.16,0,.29,.05,.4,.15s.17,.24,.17,.39l.4,25.99c0,.26-.17,.49-.43,.55-.04,0-.08,0-.13,0h.01Zm-11.34-25.59l10.75,22.5-.35-22.89-10.4,.39Z"/></g><path class="cls-2" d="M106.9,288.12c-49.22,0-70.21-15-80.06-22.04-.81-.58-1.55-1.11-2.24-1.58-11.44-7.87-13.87-26.46-9.61-39.89l.41-1.29c4.53-14.3,12.97-40.93,20.1-54.19,8.46-15.72,21.32-19.86,39.29-12.67,1.95,.78,4.14,1.68,6.53,2.66,21.77,8.93,62.3,25.56,88.82,20.14,13.27-2.71,24.82-15.27,32.53-35.36,6.88-17.91,9.86-39.73,7.98-58.36-.02-.24,.11-.46,.32-.56,.22-.1,.47-.05,.63,.13,.28,.3,28.04,30.91,32.37,79.54,2.3,25.79-6.28,54.33-22.93,76.32-13.75,18.15-39.41,40.77-83.62,45.45-11.22,1.19-21.36,1.71-30.52,1.71h0ZM59.36,154.18c-9.76,0-17.31,5.13-22.88,15.47-7.09,13.16-15.5,39.72-20.02,53.99l-.41,1.29c-2.14,6.74-2.48,14.66-.95,21.74,1.63,7.53,5.23,13.53,10.14,16.91,.69,.47,1.44,1.01,2.25,1.59,11.58,8.27,38.7,27.65,109.82,20.13,43.82-4.63,69.25-27.04,82.86-45.01,16.5-21.78,24.99-50.03,22.71-75.56-3.8-42.66-25.74-71.31-30.96-77.59,1.55,18.41-1.48,39.62-8.21,57.14-7.85,20.45-19.69,33.26-33.34,36.05-26.85,5.49-67.58-11.22-89.46-20.2-2.39-.98-4.57-1.88-6.52-2.65-5.5-2.2-10.5-3.3-15.03-3.3h0Zm-23.37,15.21h0Z"/><path class="cls-2" d="M140.03,286.09c-.19,0-.38-.1-.48-.28-.15-.27-.06-.6,.21-.75s26.79-15.59,29.38-52.5c2.59-36.83-31.47-53.4-31.81-53.56-.28-.13-.39-.46-.26-.74s.46-.39,.74-.26c.35,.17,35.09,17.04,32.44,54.64-1.38,19.6-9.44,33.06-15.95,40.91-7.07,8.51-13.71,12.32-13.99,12.48-.09,.05-.18,.07-.27,.07h-.01Z"/><path class="cls-2" d="M210.87,109.86c-.19,0-.37-.1-.48-.27h0c-.04-.06-3.94-6.12-24.71-6.44-.12,0-.23-.04-.32-.11-.19-.14-19.55-14.13-45.79-3.96-.22,.08-.46,.02-.62-.15s-.18-.43-.07-.63c.22-.4,22.05-39.23,67.9-29.92,1.32-4.22,12.01-32.74,58.18-27.43,.2,.02,.37,.15,.45,.34,.08,.19,.04,.4-.09,.56-.17,.2-16.8,20.37-24.73,47.13-.04,.15-.15,.27-.29,.34-.13,.06-12.82,6.38-13.79,17.68-.03,.3-.28,.53-.6,.5-.3-.03-.53-.29-.5-.6,.96-11.22,12.39-17.54,14.19-18.46,7.13-23.88,21.1-42.51,24.24-46.5-13.95-1.47-32.89-.54-46.01,11.54-8.03,7.39-10.1,15.59-10.12,15.67-.07,.29-.36,.47-.65,.41-40.48-8.51-62.06,21.16-66.39,27.92,24.85-8.87,43.36,3.27,45.2,4.55,21.4,.37,25.32,6.71,25.47,6.99,.15,.26,.06,.6-.2,.76-.09,.05-.18,.07-.28,.07h0Z"/><g><polygon class="cls-20" points="227.38 45.8 219.69 23.44 195.2 42.36 207.9 59.53 227.38 45.8"/><path class="cls-2" d="M207.9,60.08c-.17,0-.34-.08-.44-.22l-12.7-17.17c-.18-.24-.13-.58,.11-.77l24.49-18.92c.14-.11,.33-.14,.5-.09s.31,.18,.36,.35l7.69,22.36c.08,.23,0,.49-.2,.63l-19.48,13.72c-.1,.07-.21,.1-.32,.1h-.01Zm-11.93-17.61l12.06,16.3,18.7-13.17-7.3-21.24-23.45,18.11h0Z"/></g><g><polygon class="cls-41" points="254.43 76.12 237.85 74.1 241.36 40.64 254.58 31.2 262.03 48.46 254.43 76.12"/><path class="cls-2" d="M254.43,76.68h-.07l-16.58-2.03c-.3-.04-.51-.31-.48-.61l3.51-33.46c.02-.16,.1-.3,.23-.39l13.22-9.44c.14-.1,.31-.13,.47-.08,.16,.04,.29,.16,.36,.31l7.45,17.26c.05,.12,.06,.24,.03,.37l-7.6,27.67c-.07,.24-.29,.41-.53,.41h0Zm-15.97-3.07l15.56,1.9,7.42-27.02-7.1-16.45-12.46,8.9-3.42,32.67Z"/></g><g><circle class="cls-31" cx="226.58" cy="61.65" r="12.55"/><path class="cls-2" d="M226.58,74.75c-7.22,0-13.1-5.88-13.1-13.1s5.88-13.1,13.1-13.1,13.1,5.88,13.1,13.1-5.88,13.1-13.1,13.1Zm0-25.09c-6.61,0-11.99,5.38-11.99,11.99s5.38,11.99,11.99,11.99,11.99-5.38,11.99-11.99-5.38-11.99-11.99-11.99Z"/></g><g><circle class="cls-42" cx="233.94" cy="41.31" r="7.69"/><path class="cls-2" d="M233.94,49.56c-4.54,0-8.24-3.7-8.24-8.24s3.7-8.24,8.24-8.24,8.24,3.7,8.24,8.24-3.7,8.24-8.24,8.24Zm0-15.38c-3.94,0-7.14,3.2-7.14,7.14s3.2,7.14,7.14,7.14,7.14-3.2,7.14-7.14-3.2-7.14-7.14-7.14Z"/></g><path class="cls-2" d="M65.89,262.53c-2.97,0-6.34-.38-10.09-1.34-14-3.61-17.81-12.75-17.97-13.14-.14-.35,.03-.75,.38-.9,.35-.14,.76,.03,.9,.38,.04,.09,3.74,8.89,17.03,12.32,15.87,4.1,24.76-2.97,24.85-3.05,.3-.24,.73-.2,.97,.1,.24,.29,.2,.73-.09,.97-.29,.24-5.81,4.66-15.98,4.66h0Z"/><path class="cls-12" d="M23.8,254.68s33.59,32.53,120.93,21.22l-5.3,6.36s-90.52,9.55-115.62-27.58h0Z"/><g><path class="cls-32" d="M118.18,289.82s-3.16-.18-5.27,1.58"/><path class="cls-2" d="M112.91,291.96c-.16,0-.32-.07-.42-.2-.2-.23-.16-.58,.07-.78,2.25-1.87,5.52-1.71,5.65-1.71,.3,.02,.54,.28,.52,.58-.02,.3-.28,.54-.58,.52-.04,0-2.97-.14-4.88,1.45-.1,.09-.23,.13-.35,.13h-.01Z"/></g><g><path class="cls-32" d="M125.38,289.65s3.86-1.05,7.37,1.4"/><path class="cls-2" d="M132.75,291.61c-.11,0-.22-.03-.32-.1-3.25-2.27-6.88-1.33-6.91-1.32-.29,.08-.6-.09-.68-.39-.08-.29,.09-.6,.39-.68,.17-.04,4.15-1.09,7.84,1.48,.25,.18,.31,.52,.14,.77-.11,.15-.28,.24-.45,.24h0Z"/></g><polygon class="cls-9" points="50.77 108.76 53.8 119.63 64.68 122.66 53.8 125.7 50.77 136.57 47.73 125.7 36.86 122.66 47.73 119.63 50.77 108.76"/><polygon class="cls-4" points="98.65 34.47 100.21 40.07 105.81 41.63 100.21 43.2 98.65 48.79 97.08 43.2 91.49 41.63 97.08 40.07 98.65 34.47"/><polygon class="cls-4" points="219.04 0 220.61 5.6 226.2 7.16 220.61 8.72 219.04 14.32 217.48 8.72 211.88 7.16 217.48 5.6 219.04 0"/><polygon class="cls-14" points="128.53 102.93 129.91 107.86 134.84 109.24 129.91 110.61 128.53 115.54 127.16 110.61 122.23 109.24 127.16 107.86 128.53 102.93"/><polygon class="cls-3" points="260 158.7 261.98 165.77 269.05 167.75 261.98 169.72 260 176.79 258.03 169.72 250.95 167.75 258.03 165.77 260 158.7"/><polygon class="cls-17" points="306.05 219.25 309.4 231.23 321.38 234.57 309.4 237.92 306.05 249.9 302.71 237.92 290.73 234.57 302.71 231.23 306.05 219.25"/><polygon class="cls-17" points="164.4 159.41 166.11 165.55 172.25 167.26 166.11 168.97 164.4 175.11 162.69 168.97 156.55 167.26 162.69 165.55 164.4 159.41"/><polygon class="cls-11" points="245.45 95.2 246.59 99.31 250.69 100.45 246.59 101.6 245.45 105.7 244.3 101.6 240.2 100.45 244.3 99.31 245.45 95.2"/><polygon class="cls-3" points="282.98 43.19 284.19 47.5 288.49 48.7 284.19 49.91 282.98 54.22 281.78 49.91 277.47 48.7 281.78 47.5 282.98 43.19"/><polygon class="cls-3" points="221.26 274.74 222.85 280.45 228.56 282.05 222.85 283.64 221.26 289.35 219.66 283.64 213.96 282.05 219.66 280.45 221.26 274.74"/><g><g><path class="cls-36" d="M115.87,165.67s-12.72-3.79-13.89-.5,9.96,12.06,24.74,17.32,25.63,5.98,26.68,3.02-9.17-10.11-9.17-10.11"/><path class="cls-2" d="M148.18,187.8c-1.01,0-2.05-.07-3.02-.16-5.05-.5-11.66-2.14-18.62-4.62-6.8-2.42-13.54-5.88-18.49-9.48-2.3-1.67-7.54-5.85-6.58-8.55,1.28-3.6,12.36-.5,14.56,.16,.29,.09,.46,.4,.37,.69-.09,.29-.4,.46-.69,.37-5.07-1.51-12.52-2.77-13.21-.85-.39,1.1,1.37,3.78,6.19,7.29,4.87,3.54,11.5,6.94,18.21,9.33,15.74,5.6,25.2,5.55,25.98,3.36,.63-1.76-4.86-6.6-8.97-9.47-.25-.17-.31-.52-.14-.77s.52-.31,.77-.14c1.76,1.24,10.51,7.56,9.37,10.75-.58,1.63-3.06,2.1-5.75,2.1h.02Z"/></g><path class="cls-36" d="M142.96,178.46s3.26-16.42,2.89-20.07c-.33-3.23-7.41-6.26-9.02-6.9h0s-.06-.03-.17-.06c-.1-.04-.16-.06-.16-.06h0c-1.65-.5-9.05-2.64-11.35-.34-2.59,2.59-10.44,17.38-10.44,17.38,0,0,2.02,3.68,14.12,8.17"/><path class="cls-10" d="M117.89,163.62s9.88,7.59,25.46,9.06l-.36,4.13s-14.36-.77-27.34-10.39l2.24-2.8Z"/><path class="cls-2" d="M142.59,180.07c-.84,0-5.97-.13-13.95-2.97-12.22-4.35-14.34-8.28-14.42-8.44s-.08-.35,0-.51c.32-.61,7.92-14.89,10.54-17.51,2.43-2.44,9.51-.52,11.8,.18,.05,0,.09,.02,.14,.03l.3,.11s.1,.04,.14,.07c2.22,.9,8.91,3.89,9.26,7.31,.37,3.69-3.02,20.57-3.17,21.28-.05,.25-.27,.44-.53,.44h-.11Zm.1-.54h0Zm-27.34-11.14c.64,.86,3.61,4.1,13.66,7.68,6.98,2.48,11.8,2.84,13.23,2.9,.55-2.76,3.38-17.3,3.06-20.5-.23-2.28-4.82-4.89-8.67-6.44-.02,0-.05-.02-.07-.03l-.14-.05s-.05,0-.08-.02c-3.97-1.24-9.18-2.11-10.79-.49-2.31,2.31-9.08,14.88-10.19,16.96h0Z"/><path class="cls-2" d="M142.35,159.39c-1.41,0-4.32-.22-8.32-1.64-5.65-2.01-7.74-4.14-7.82-4.23-.21-.22-.2-.57,.02-.78,.22-.21,.57-.2,.78,0,.02,.02,2.03,2.04,7.4,3.95,5.38,1.92,8.74,1.55,8.77,1.54,.3-.04,.58,.18,.61,.48s-.18,.58-.48,.61c-.04,0-.37,.04-.95,.04v.02Z"/><path class="cls-8" d="M125.85,153.85s-5.45,11.74-6.09,13.02,.78,3.58,.78,3.58c0,0-3.25-1.29-3.06-2.63s6.95-11.82,6.95-11.82l1.42-2.15Z"/><path class="cls-8" d="M112.33,166.62s-7.55-1.89-8.07-.57c-.59,1.5,6.68,6.29,6.68,6.29,0,0-5.65-4.67-5.24-5.82s6.63,.1,6.63,.1h0Z"/></g><path class="cls-1" d="M243.43,164.69c-3.64-40.88-23.62-68.66-30.15-76.76l-.31,.21s45.56,60.65,7.07,129.77l8.54,10.67c11.79-20.49,16.67-43.5,14.85-63.89h0Z"/><g><path class="cls-7" d="M139.38,270.76c5.37,3.69,30.21,14.77,38.26,16.45,8.06,1.68,13.43,0,16.45-1.34s20.14-12.42,31.22-21.82,13.09-21.48,11.75-30.21-11.41-18.13-19.8-25.51-13.43-4.36-16.11,0c-2.69,4.36-18.8,50.35-26.52,52.03-7.72,1.68-31.57-.81-31.57-.81,0,0-3.8,1.33-4.68,4.15"/><path class="cls-2" d="M184.13,288.46c-2.12,0-4.33-.24-6.6-.71-8.45-1.76-33.17-12.89-38.46-16.53-.25-.17-.32-.52-.14-.77,.17-.25,.52-.31,.77-.14,5.1,3.51,29.93,14.67,38.06,16.36,5.95,1.24,11.37,.8,16.11-1.31,3.15-1.4,20.39-12.66,31.08-21.73,12.88-10.93,12.37-24.41,11.56-29.7-1.41-9.15-13.26-19.58-19.62-25.18-3.69-3.25-6.99-4.68-9.79-4.27-2.14,.32-3.99,1.71-5.48,4.14-.69,1.12-2.38,5.28-4.52,10.56-8.3,20.45-16.85,40.52-22.35,41.72-7.5,1.63-29.51-.57-31.61-.79-.6,.24-3.52,1.49-4.23,3.76-.09,.29-.4,.45-.69,.36-.29-.09-.45-.4-.36-.69,.96-3.06,4.86-4.45,5.03-4.51,.08-.03,.16-.04,.24-.03,.24,.02,23.85,2.46,31.4,.82,5.39-1.17,15.91-27.11,21.56-41.05,2.24-5.53,3.86-9.53,4.6-10.72,1.65-2.68,3.81-4.29,6.26-4.66,3.14-.47,6.74,1.05,10.69,4.53,8.96,7.88,18.63,17.03,19.98,25.84,.84,5.48,1.36,19.43-11.94,30.71-10.98,9.31-28.07,20.44-31.35,21.9-3.13,1.39-6.54,2.09-10.18,2.09h-.02Z"/></g><path class="cls-12" d="M179.38,276.78s22.81-32.88,28.64-48.79,11.14-7.96,15.38-2.12,8.49,11.14,4.77,20.68c-3.71,9.55-31.29,30.23-36.07,33.94s-15.38,0-12.73-3.71h0Z"/></g></g></svg>