<svg xmlns="http://www.w3.org/2000/svg" viewBox="0 0 64 64" width="64" height="64" fill="none">
  <g fill="#0787C6">
    <path d="M12 34c0-2 1-4 3-5l7-4 4 4-7 6c-1 1-3 1-4 0-2-1-3-1-3-1z" opacity="0.95"/>
    <path d="M52 30c0 2-1 4-3 5l-7 4-4-4 7-6c1-1 3-1 4 0 2 1 3 1 3 1z" opacity="0.95"/>
    <path d="M23 44c-1 0-2-1-2-2v-6l9 6-3 4c-2 1-4 1-4 0z" opacity="0.95"/>
    <path d="M41 44c1 0 2-1 2-2v-6l-9 6 3 4c2 1 4 1 4 0z" opacity="0.95"/>
    <path d="M32 6c-9 0-18 7-20 16-1 6 1 12 6 16l6-5c-3-2-5-6-4-10 1-6 8-12 14-12 6 0 13 6 14 12 1 4-1 8-4 10l6 5c5-4 7-10 6-16C50 13 41 6 32 6z" opacity="0.95"/>
  </g>
</svg>