<?xml version="1.0" encoding="UTF-8"?>
<svg id="_レイヤー_1" data-name="レイヤー_1" xmlns="http://www.w3.org/2000/svg" xmlns:xlink="http://www.w3.org/1999/xlink" viewBox="0 0 350 71">
  <defs>
    <style>
      .cls-1 {
        fill: #00a7eb;
      }

      .cls-2 {
        fill: #3e3a39;
      }

      .cls-3 {
        fill: none;
      }

      .cls-4 {
        clip-path: url(#clippath);
      }
    </style>
    <clipPath id="clippath">
      <rect class="cls-3" y=".35" width="349.32" height="70.65"/>
    </clipPath>
  </defs>
  <g class="cls-4">
    <path class="cls-2" d="M316.98,9.69h28.14v6.63h3.83v-7.97c0-1.06-.85-1.92-1.92-1.92h-3.87V.58h-3.84v5.86h-7.64V.58h-3.83v5.86h-5.09V.58h-3.83v5.86h-3.86c-1.06,0-1.92.85-1.92,1.92v7.97h3.83v-6.63Z"/>
    <path class="cls-2" d="M329.98,26.61h-17.17v3.26h17.17v8.16h-3.79v3.25h5.7c1.06,0,1.92-.87,1.92-1.92v-9.5h15.51v-3.26h-15.51v-2.26c5.14-.7,8.39-6.02,8.39-9.17,0-.9-.72-1.63-1.62-1.63h-20.24v3.25h17.65c-.38,1.81-3.31,4.31-5.63,4.37h-2.38v5.43Z"/>
    <path class="cls-2" d="M110.93,28.55h7.92c1.07,0,1.92-.85,1.92-1.92v-13.14c0-1.06-.85-1.92-1.92-1.92h-11.05v-2.95h15.99v-3.25h-15.99V.58h-3.83v4.8h-15.99v3.25h15.99v2.95h-11.05c-1.06,0-1.92.86-1.92,1.92v13.14c0,1.06.86,1.92,1.92,1.92h7.92c-3.03,3.32-7.59,6.43-13.22,9.13l1.65,3.4c6.51-3.12,11.43-6.73,14.7-10.78v10.99h3.83v-10.99c3.26,4.05,8.18,7.67,14.7,10.78l1.64-3.4c-5.63-2.7-10.19-5.81-13.22-9.13M116.93,25.3h-9.13v-3.61h9.13v3.61ZM116.93,18.44h-9.13v-3.61h9.13v3.61ZM94.84,14.83h9.13v3.61h-9.13v-3.61ZM94.84,21.69h9.13v3.61h-9.13v-3.61Z"/>
    <path class="cls-2" d="M158.39,30.34l-2.45,2.65c2.92,2.83,6.64,5.47,11.24,7.87l1.76-3.35c-4.21-2.2-7.8-4.64-10.56-7.17"/>
    <polygon class="cls-2" points="168.49 5.37 152.51 5.37 152.51 .58 148.66 .58 148.66 5.37 132.68 5.37 132.68 8.63 168.49 8.63 168.49 5.37"/>
    <path class="cls-2" d="M132.21,37.74l1.78,3.35c4.59-2.4,8.32-5.04,11.23-7.87l-2.43-2.65c-2.77,2.53-6.36,4.98-10.58,7.18"/>
    <path class="cls-2" d="M163.32,27.85c1.05,0,1.91-.86,1.91-1.92v-12.21c0-1.06-.86-1.92-1.91-1.92h-25.47c-1.07,0-1.92.86-1.92,1.92v12.21c0,1.06.86,1.92,1.92,1.92h10.81v13.44h3.84v-13.44h10.82ZM139.77,15.06h21.62v9.54h-21.62v-9.54Z"/>
    <path class="cls-2" d="M197.21,16.82v-3.26h-2.9c1.09-1.57,1.99-3.33,2.6-4.75.25-.6.11-1.26-.21-1.69-.35-.48-.94-.74-1.55-.74h-6.05V.58h-3.84v5.8h-5.72v3.26h5.72v3.93h-7.35v3.26h9.31c-3.43,3.72-7.63,7.21-11.35,9.49l1.94,2.94c1.19-.71,2.45-1.57,3.73-2.56v12.67c0,1.05.85,1.92,1.92,1.92h10.21c1.06,0,1.92-.87,1.92-1.92v-17.09c0-1.06-.86-1.92-1.92-1.92h-5c1.13-1.16,2.18-2.35,3.17-3.53h5.39ZM192.03,38.03h-6.98v-5.58h6.98v5.58ZM192.03,29.19h-6.98v-5.58h6.98v5.58ZM189.09,13.56v-3.93h3.35c-.67,1.21-1.51,2.68-2.47,3.93h-.88Z"/>
    <path class="cls-2" d="M210.56,19.31c.5-1.56,3.85-12.01,4.09-12.75.24-.74-.03-1.38-.27-1.72-.36-.49-.95-.79-1.55-.79h-11.68c-1.06,0-1.92.86-1.92,1.92v35.31h3.84V7.31h7.31c-1.27,3.9-3.34,10.36-3.76,11.73-.18.58-.12,1.16.27,1.71,3.52,4.86,4.68,8.68,4.68,11.04,0,3.18-2.17,3.44-3.12,3.44h-2.81v3.55h2.81c3.11,0,6.96-1.9,6.96-7.32,0-2.76-1.1-6.74-4.86-12.14"/>
    <path class="cls-2" d="M288.5,12.24h15.54v-3.53h-16V.58h-3.84v8.12h-15.99v3.53h15.55c-.89,6.19-5.04,16.87-17.12,25.18l2.36,3.2c9.63-7.02,14.72-15.74,17.11-22.57,2.39,6.83,7.49,15.55,17.14,22.57l2.35-3.2c-12.07-8.31-16.24-18.99-17.11-25.18"/>
    <path class="cls-2" d="M259.3,8.63v-3.25h-15.98V.58h-3.84v4.8h-15.99v3.25h15.99v6.02h-12.02c-1.06,0-1.92.86-1.92,1.92v18.98h3.84v-17.65h10.1v23.39h3.84v-23.39h10.78v14.76h-3.83v3.25h5.75c1.06,0,1.92-.85,1.92-1.92v-17.43c0-1.06-.86-1.92-1.92-1.92h-12.71v-6.02h15.98Z"/>
    <path class="cls-1" d="M73.84,39.74c0,1.04-.85,1.9-1.89,1.9H1.89c-1.04,0-1.89-.87-1.89-1.9V2.25C0,1.21.85.35,1.89.35h70.06c1.04,0,1.89.86,1.89,1.9v37.49Z"/>
    <path class="cls-1" d="M30.81,69.11c0,1.03-.85,1.89-1.89,1.89H12.35c-1.03,0-1.89-.86-1.89-1.89v-16.56c0-1.04.85-1.9,1.89-1.9h16.57c1.04,0,1.89.86,1.89,1.9v16.56Z"/>
    <path class="cls-2" d="M229.69,55.03v6.99c0,.52-.03.96-.12,1.31-.07.33-.2.63-.37.88-.2.3-.47.5-.8.65-.33.15-.76.22-1.26.22s-.92-.07-1.26-.22c-.33-.15-.59-.35-.79-.64-.18-.26-.31-.54-.38-.86-.09-.33-.12-.79-.12-1.36v-6.96h-1.96v6.89c0,.86.08,1.6.27,2.19.18.61.5,1.15.93,1.58.38.39.85.68,1.4.88.55.18,1.18.28,1.9.28s1.33-.09,1.87-.27c.54-.19,1.03-.48,1.43-.89.44-.42.75-.97.93-1.59.19-.62.28-1.35.28-2.18v-6.89h-1.96Z"/>
    <path class="cls-2" d="M244.47,55.03v8.31c-.77-1.44-4.39-8.31-4.39-8.31h-2.67v11.58h1.87v-9.18c.76,1.46,4.84,9.18,4.84,9.18h2.21v-11.58h-1.85Z"/>
    <polygon class="cls-2" points="252.05 55.03 252.05 56.64 253.49 56.64 253.49 64.99 252.05 64.99 252.05 66.61 256.88 66.61 256.88 64.99 255.44 64.99 255.44 56.64 256.88 56.64 256.88 55.03 256.64 55.03 252.05 55.03"/>
    <path class="cls-2" d="M270.35,55.03s-2.9,8.15-3.31,9.28c-.41-1.13-3.31-9.28-3.31-9.28h-2.08l4.21,11.58h2.31l4.21-11.58h-2.04Z"/>
    <polygon class="cls-2" points="276.7 55.03 276.7 66.61 284.5 66.61 284.5 64.82 278.65 64.82 278.65 61.61 284.07 61.61 284.07 59.82 278.65 59.82 278.65 56.82 284.5 56.82 284.5 55.03 284.27 55.03 276.7 55.03"/>
    <path class="cls-2" d="M297.76,60.45c.43-.58.65-1.31.65-2.15,0-.63-.13-1.17-.37-1.59-.24-.43-.6-.78-1.03-1.05-.38-.24-.81-.41-1.29-.5-.46-.09-1.05-.13-1.72-.13h-4.04v11.58h1.95v-4.41h2.39c.14.2,3.13,4.41,3.13,4.41h2.53s-3.4-4.6-3.72-5.01c.61-.28,1.13-.65,1.5-1.15M296.38,58.4c0,.38-.05.71-.15.95-.1.24-.25.44-.43.62-.21.2-.47.33-.78.39-.33.08-.72.12-1.17.12h-1.94v-3.69h2.18c.38,0,.71.03,1,.08.26.05.48.14.66.26.22.15.38.32.47.53.1.2.15.46.15.74"/>
    <polygon class="cls-2" points="316.83 55.03 316.83 56.64 318.27 56.64 318.27 64.99 316.83 64.99 316.83 66.61 321.68 66.61 321.68 64.99 320.24 64.99 320.24 56.64 321.68 56.64 321.68 55.03 321.44 55.03 316.83 55.03"/>
    <polygon class="cls-2" points="326.01 55.03 326.01 56.82 329.98 56.82 329.98 66.61 331.94 66.61 331.94 56.82 335.92 56.82 335.92 55.03 335.67 55.03 326.01 55.03"/>
    <path class="cls-2" d="M348.55,55.03h-1.7s-2.57,4.14-2.93,4.74c-.36-.6-2.89-4.74-2.89-4.74h-2.21s4.04,6.58,4.11,6.69v4.89h1.97v-5.04c.07-.12,4.09-6.54,4.09-6.54h-.44Z"/>
    <path class="cls-2" d="M309.76,60.14s-1.51-.31-1.51-.31l-1.34-.25c-.55-.13-.93-.32-1.13-.54-.18-.22-.29-.53-.29-.92,0-.44.2-.79.61-1.07.44-.3,1.03-.45,1.77-.45.67,0,1.36.12,2.02.34.53.18.97.4,1.33.66h.48v-2.03c-.48-.19-1.03-.38-1.64-.51-.67-.15-1.41-.23-2.19-.23-1.26,0-2.31.32-3.13.94-.85.64-1.28,1.47-1.28,2.49,0,.87.26,1.59.78,2.14.51.55,1.27.93,2.31,1.15l1.39.25,1.18.24c.45.12.78.28.99.48.2.19.29.49.29.92,0,.49-.21.87-.66,1.16-.46.32-1.13.47-1.98.47-.62,0-1.28-.13-1.99-.37-.7-.24-1.33-.59-1.86-1.03l-.08-.06h-.43v2.26l.14.07c.66.3,1.34.53,1.99.68.66.15,1.4.23,2.22.23.76,0,1.43-.1,1.98-.27.56-.2,1.05-.46,1.47-.8.4-.31.69-.71.92-1.17.22-.45.32-.92.32-1.38,0-.86-.23-1.54-.69-2.03-.45-.48-1.11-.84-1.97-1.06"/>
    <path class="cls-2" d="M171.99,55.05c-.61-.15-1.24-.22-1.85-.22-.83,0-1.61.13-2.31.4-.69.27-1.3.65-1.79,1.16-.51.52-.9,1.17-1.17,1.92-.27.74-.4,1.6-.4,2.54,0,.99.14,1.88.43,2.63.28.76.67,1.4,1.17,1.9.52.5,1.13.88,1.82,1.12.68.23,1.44.35,2.27.35.44,0,.84-.03,1.21-.11l1.03-.25.89-.34.89-.4v-2.14h-.44l-.07.07c-.51.47-1.08.82-1.66,1.05-.59.23-1.24.34-1.9.34-.48,0-.95-.07-1.39-.25-.42-.15-.8-.41-1.12-.75-.32-.34-.57-.76-.76-1.3-.2-.52-.31-1.17-.31-1.93,0-.72.1-1.35.27-1.89.18-.54.44-.99.76-1.33.32-.35.69-.63,1.11-.78.41-.16.89-.25,1.42-.25.65,0,1.26.11,1.84.33.57.21,1.16.56,1.74,1.05l.07.07h.44v-2.14l-.14-.06c-.74-.38-1.42-.64-2.02-.78"/>
    <polygon class="cls-2" points="179.31 55.03 179.31 56.64 180.75 56.64 180.75 64.99 179.31 64.99 179.31 66.61 184.16 66.61 184.16 64.99 182.71 64.99 182.71 56.64 184.16 56.64 184.16 55.03 183.91 55.03 179.31 55.03"/>
    <polygon class="cls-2" points="188.49 55.03 188.49 56.82 192.46 56.82 192.46 66.61 194.41 66.61 194.41 56.82 198.39 56.82 198.39 55.03 198.14 55.03 188.49 55.03"/>
    <path class="cls-2" d="M209.23,55.03s-2.56,4.14-2.92,4.74c-.36-.6-2.89-4.74-2.89-4.74h-2.22s4.05,6.58,4.12,6.69v4.89h1.96v-5.04c.07-.12,4.1-6.54,4.1-6.54h-2.15Z"/>
    <polygon class="cls-2" points="87.98 55.03 87.98 56.82 91.95 56.82 91.95 66.61 93.9 66.61 93.9 56.82 97.88 56.82 97.88 55.03 97.63 55.03 87.98 55.03"/>
    <path class="cls-2" d="M110.07,56.38h0c-.46-.51-1.03-.91-1.7-1.18-.66-.27-1.41-.41-2.23-.41s-1.53.14-2.22.4c-.67.27-1.25.68-1.71,1.18-.48.53-.84,1.19-1.09,1.93-.24.74-.37,1.59-.37,2.52s.13,1.8.38,2.53c.25.74.61,1.39,1.08,1.9.47.51,1.05.91,1.71,1.19.67.27,1.42.4,2.23.4s1.58-.13,2.23-.39c.65-.27,1.22-.68,1.7-1.2.46-.5.82-1.15,1.08-1.9.25-.74.38-1.59.38-2.54s-.12-1.79-.37-2.53c-.25-.75-.62-1.41-1.09-1.92M109.51,60.82c0,1.38-.31,2.46-.92,3.19-.61.72-1.42,1.07-2.44,1.07s-1.84-.34-2.45-1.07c-.61-.73-.92-1.8-.92-3.19s.3-2.44.9-3.18c.6-.73,1.41-1.08,2.46-1.08s1.85.35,2.45,1.08c.6.74.91,1.81.91,3.18"/>
    <path class="cls-2" d="M125.43,55.03h-2.47s-4.28,4.61-5,5.4v-5.4h-1.96v11.58h1.96v-3.91c.1-.11.62-.66.86-.91.33.37,4.26,4.82,4.26,4.82h2.57s-5.11-5.8-5.38-6.12c.28-.3,5.17-5.46,5.17-5.46"/>
    <path class="cls-2" d="M136.04,55.03s-2.56,4.14-2.93,4.74c-.36-.6-2.88-4.74-2.88-4.74h-2.22s4.05,6.58,4.12,6.69v4.89h1.96v-5.04c.07-.12,4.1-6.54,4.1-6.54h-2.14Z"/>
    <path class="cls-2" d="M150.23,56.38h0c-.46-.51-1.04-.91-1.7-1.18-.67-.27-1.41-.41-2.24-.41-.79,0-1.53.14-2.2.4-.69.27-1.26.68-1.72,1.18-.47.53-.84,1.19-1.1,1.93-.24.74-.36,1.59-.36,2.52s.12,1.8.37,2.53c.26.74.62,1.39,1.09,1.9.47.51,1.04.91,1.72,1.19.66.27,1.41.4,2.21.4s1.58-.13,2.24-.39c.65-.27,1.23-.68,1.71-1.2.46-.5.82-1.15,1.08-1.9.26-.74.38-1.59.38-2.54s-.13-1.79-.37-2.53c-.25-.75-.62-1.41-1.09-1.92M149.66,60.82c0,1.38-.31,2.46-.92,3.19-.61.72-1.41,1.07-2.44,1.07s-1.83-.34-2.44-1.07c-.61-.73-.93-1.8-.93-3.19s.31-2.44.92-3.18c.6-.73,1.4-1.08,2.45-1.08s1.85.35,2.45,1.08c.6.74.91,1.81.91,3.18"/>
  </g>
  <rect class="cls-3" width="350" height="71"/>
</svg>